<mxfile host="Electron" modified="2024-05-27T12:31:08.415Z" agent="Mozilla/5.0 (Windows NT 10.0; Win64; x64) AppleWebKit/537.36 (KHTML, like Gecko) draw.io/24.4.0 Chrome/120.0.6099.109 Electron/28.1.0 Safari/537.36" etag="AsOTvUJ4xkEosVslaHJz" version="24.4.0" type="device">
  <diagram id="R2lEEEUBdFMjLlhIrx00" name="Page-1">
    <mxGraphModel dx="2177" dy="797" grid="1" gridSize="10" guides="1" tooltips="1" connect="1" arrows="1" fold="1" page="1" pageScale="1" pageWidth="850" pageHeight="1100" math="0" shadow="0" extFonts="Permanent Marker^https://fonts.googleapis.com/css?family=Permanent+Marker">
      <root>
        <mxCell id="0" />
        <mxCell id="1" parent="0" />
        <mxCell id="ZV97j1tld4-GT4euIs2s-189" value="List" style="swimlane;fontStyle=0;childLayout=stackLayout;horizontal=1;startSize=26;horizontalStack=0;resizeParent=1;resizeParentMax=0;resizeLast=0;collapsible=1;marginBottom=0;align=center;fontSize=14;rounded=1;" parent="1" vertex="1">
          <mxGeometry x="310" y="810" width="160" height="120" as="geometry" />
        </mxCell>
        <mxCell id="ZV97j1tld4-GT4euIs2s-190" value="Item 1" style="text;strokeColor=none;fillColor=none;spacingLeft=4;spacingRight=4;overflow=hidden;rotatable=0;points=[[0,0.5],[1,0.5]];portConstraint=eastwest;fontSize=12;whiteSpace=wrap;html=1;" parent="ZV97j1tld4-GT4euIs2s-189" vertex="1">
          <mxGeometry y="26" width="160" height="30" as="geometry" />
        </mxCell>
        <mxCell id="ZV97j1tld4-GT4euIs2s-191" value="Item 2" style="text;strokeColor=none;fillColor=none;spacingLeft=4;spacingRight=4;overflow=hidden;rotatable=0;points=[[0,0.5],[1,0.5]];portConstraint=eastwest;fontSize=12;whiteSpace=wrap;html=1;" parent="ZV97j1tld4-GT4euIs2s-189" vertex="1">
          <mxGeometry y="56" width="160" height="30" as="geometry" />
        </mxCell>
        <mxCell id="ZV97j1tld4-GT4euIs2s-192" value="Item 3" style="text;strokeColor=none;fillColor=none;spacingLeft=4;spacingRight=4;overflow=hidden;rotatable=0;points=[[0,0.5],[1,0.5]];portConstraint=eastwest;fontSize=12;whiteSpace=wrap;html=1;rounded=1;glass=0;sketch=1;curveFitting=1;jiggle=2;" parent="ZV97j1tld4-GT4euIs2s-189" vertex="1">
          <mxGeometry y="86" width="160" height="34" as="geometry" />
        </mxCell>
        <mxCell id="ZV97j1tld4-GT4euIs2s-198" value="Evento" style="swimlane;fontStyle=0;childLayout=stackLayout;horizontal=1;startSize=26;horizontalStack=0;resizeParent=1;resizeParentMax=0;resizeLast=0;collapsible=1;marginBottom=0;align=center;fontSize=14;rounded=1;" parent="1" vertex="1">
          <mxGeometry x="-380" y="130" width="160" height="110" as="geometry" />
        </mxCell>
        <mxCell id="ZV97j1tld4-GT4euIs2s-199" value="+ Nome: stringa&lt;div&gt;+ Descrizione:stringa&lt;/div&gt;&lt;div&gt;+ OraInizio:&lt;/div&gt;&lt;div&gt;+ OraFine:&lt;/div&gt;&lt;div&gt;+ Data: date&lt;/div&gt;" style="text;strokeColor=none;fillColor=none;spacingLeft=4;spacingRight=4;overflow=hidden;rotatable=0;points=[[0,0.5],[1,0.5]];portConstraint=eastwest;fontSize=12;whiteSpace=wrap;html=1;" parent="ZV97j1tld4-GT4euIs2s-198" vertex="1">
          <mxGeometry y="26" width="160" height="84" as="geometry" />
        </mxCell>
        <mxCell id="ZV97j1tld4-GT4euIs2s-202" value="List" style="swimlane;fontStyle=0;childLayout=stackLayout;horizontal=1;startSize=26;horizontalStack=0;resizeParent=1;resizeParentMax=0;resizeLast=0;collapsible=1;marginBottom=0;align=center;fontSize=14;rounded=1;" parent="1" vertex="1">
          <mxGeometry x="100" y="950" width="160" height="120" as="geometry" />
        </mxCell>
        <mxCell id="ZV97j1tld4-GT4euIs2s-203" value="Item 1" style="text;strokeColor=none;fillColor=none;spacingLeft=4;spacingRight=4;overflow=hidden;rotatable=0;points=[[0,0.5],[1,0.5]];portConstraint=eastwest;fontSize=12;whiteSpace=wrap;html=1;" parent="ZV97j1tld4-GT4euIs2s-202" vertex="1">
          <mxGeometry y="26" width="160" height="30" as="geometry" />
        </mxCell>
        <mxCell id="ZV97j1tld4-GT4euIs2s-204" value="Item 2" style="text;strokeColor=none;fillColor=none;spacingLeft=4;spacingRight=4;overflow=hidden;rotatable=0;points=[[0,0.5],[1,0.5]];portConstraint=eastwest;fontSize=12;whiteSpace=wrap;html=1;" parent="ZV97j1tld4-GT4euIs2s-202" vertex="1">
          <mxGeometry y="56" width="160" height="30" as="geometry" />
        </mxCell>
        <mxCell id="ZV97j1tld4-GT4euIs2s-205" value="Item 3" style="text;strokeColor=none;fillColor=none;spacingLeft=4;spacingRight=4;overflow=hidden;rotatable=0;points=[[0,0.5],[1,0.5]];portConstraint=eastwest;fontSize=12;whiteSpace=wrap;html=1;rounded=1;glass=0;sketch=1;curveFitting=1;jiggle=2;" parent="ZV97j1tld4-GT4euIs2s-202" vertex="1">
          <mxGeometry y="86" width="160" height="34" as="geometry" />
        </mxCell>
        <mxCell id="ZV97j1tld4-GT4euIs2s-206" value="Cliente" style="swimlane;fontStyle=0;childLayout=stackLayout;horizontal=1;startSize=26;horizontalStack=0;resizeParent=1;resizeParentMax=0;resizeLast=0;collapsible=1;marginBottom=0;align=center;fontSize=14;rounded=1;" parent="1" vertex="1">
          <mxGeometry x="-190" y="130" width="160" height="220" as="geometry" />
        </mxCell>
        <mxCell id="ZV97j1tld4-GT4euIs2s-207" value="+ Nome: stringa&lt;div&gt;+ Cognome: satringa&lt;/div&gt;&lt;div&gt;+ E-Mail: text&lt;/div&gt;&lt;div&gt;- Codice Fiscale: stringa&lt;/div&gt;&lt;div&gt;- Cellulare: int&lt;/div&gt;&lt;div&gt;- Via: stringa&lt;/div&gt;&lt;div&gt;- CittÃ : stringa&lt;/div&gt;&lt;div&gt;- Provincia: stringa&lt;/div&gt;" style="text;strokeColor=none;fillColor=none;spacingLeft=4;spacingRight=4;overflow=hidden;rotatable=0;points=[[0,0.5],[1,0.5]];portConstraint=eastwest;fontSize=12;whiteSpace=wrap;html=1;" parent="ZV97j1tld4-GT4euIs2s-206" vertex="1">
          <mxGeometry y="26" width="160" height="124" as="geometry" />
        </mxCell>
        <mxCell id="ZV97j1tld4-GT4euIs2s-208" value="&amp;nbsp;" style="text;strokeColor=none;fillColor=none;spacingLeft=4;spacingRight=4;overflow=hidden;rotatable=0;points=[[0,0.5],[1,0.5]];portConstraint=eastwest;fontSize=12;whiteSpace=wrap;html=1;" parent="ZV97j1tld4-GT4euIs2s-206" vertex="1">
          <mxGeometry y="150" width="160" height="30" as="geometry" />
        </mxCell>
        <mxCell id="ZV97j1tld4-GT4euIs2s-209" value="- AggiungiAiPreferiti()&lt;div&gt;- AggiungiRecensione()&lt;br&gt;&lt;/div&gt;" style="text;strokeColor=none;fillColor=none;spacingLeft=4;spacingRight=4;overflow=hidden;rotatable=0;points=[[0,0.5],[1,0.5]];portConstraint=eastwest;fontSize=12;whiteSpace=wrap;html=1;rounded=1;glass=0;sketch=1;curveFitting=1;jiggle=2;" parent="ZV97j1tld4-GT4euIs2s-206" vertex="1">
          <mxGeometry y="180" width="160" height="40" as="geometry" />
        </mxCell>
        <mxCell id="2pnQEgeZLrab80hULNss-3" value="" style="endArrow=none;html=1;rounded=0;entryX=1;entryY=0.5;entryDx=0;entryDy=0;exitX=0;exitY=0.5;exitDx=0;exitDy=0;" edge="1" parent="ZV97j1tld4-GT4euIs2s-206" source="ZV97j1tld4-GT4euIs2s-208" target="ZV97j1tld4-GT4euIs2s-208">
          <mxGeometry width="50" height="50" relative="1" as="geometry">
            <mxPoint x="-315" y="160" as="sourcePoint" />
            <mxPoint x="-265" y="110" as="targetPoint" />
          </mxGeometry>
        </mxCell>
        <mxCell id="ZV97j1tld4-GT4euIs2s-210" value="Ordine" style="swimlane;fontStyle=0;childLayout=stackLayout;horizontal=1;startSize=26;horizontalStack=0;resizeParent=1;resizeParentMax=0;resizeLast=0;collapsible=1;marginBottom=0;align=center;fontSize=14;rounded=1;" parent="1" vertex="1">
          <mxGeometry x="-190" y="390" width="160" height="56" as="geometry" />
        </mxCell>
        <mxCell id="ZV97j1tld4-GT4euIs2s-211" value="+ Stato: stringa" style="text;strokeColor=none;fillColor=none;spacingLeft=4;spacingRight=4;overflow=hidden;rotatable=0;points=[[0,0.5],[1,0.5]];portConstraint=eastwest;fontSize=12;whiteSpace=wrap;html=1;" parent="ZV97j1tld4-GT4euIs2s-210" vertex="1">
          <mxGeometry y="26" width="160" height="30" as="geometry" />
        </mxCell>
        <mxCell id="ZV97j1tld4-GT4euIs2s-214" value="List" style="swimlane;fontStyle=0;childLayout=stackLayout;horizontal=1;startSize=26;horizontalStack=0;resizeParent=1;resizeParentMax=0;resizeLast=0;collapsible=1;marginBottom=0;align=center;fontSize=14;rounded=1;" parent="1" vertex="1">
          <mxGeometry x="150" y="790" width="160" height="120" as="geometry" />
        </mxCell>
        <mxCell id="ZV97j1tld4-GT4euIs2s-215" value="Item 1" style="text;strokeColor=none;fillColor=none;spacingLeft=4;spacingRight=4;overflow=hidden;rotatable=0;points=[[0,0.5],[1,0.5]];portConstraint=eastwest;fontSize=12;whiteSpace=wrap;html=1;" parent="ZV97j1tld4-GT4euIs2s-214" vertex="1">
          <mxGeometry y="26" width="160" height="30" as="geometry" />
        </mxCell>
        <mxCell id="ZV97j1tld4-GT4euIs2s-216" value="Item 2" style="text;strokeColor=none;fillColor=none;spacingLeft=4;spacingRight=4;overflow=hidden;rotatable=0;points=[[0,0.5],[1,0.5]];portConstraint=eastwest;fontSize=12;whiteSpace=wrap;html=1;" parent="ZV97j1tld4-GT4euIs2s-214" vertex="1">
          <mxGeometry y="56" width="160" height="30" as="geometry" />
        </mxCell>
        <mxCell id="ZV97j1tld4-GT4euIs2s-217" value="Item 3" style="text;strokeColor=none;fillColor=none;spacingLeft=4;spacingRight=4;overflow=hidden;rotatable=0;points=[[0,0.5],[1,0.5]];portConstraint=eastwest;fontSize=12;whiteSpace=wrap;html=1;rounded=1;glass=0;sketch=1;curveFitting=1;jiggle=2;" parent="ZV97j1tld4-GT4euIs2s-214" vertex="1">
          <mxGeometry y="86" width="160" height="34" as="geometry" />
        </mxCell>
        <mxCell id="ZV97j1tld4-GT4euIs2s-218" value="List" style="swimlane;fontStyle=0;childLayout=stackLayout;horizontal=1;startSize=26;horizontalStack=0;resizeParent=1;resizeParentMax=0;resizeLast=0;collapsible=1;marginBottom=0;align=center;fontSize=14;rounded=1;" parent="1" vertex="1">
          <mxGeometry x="590" y="820" width="160" height="120" as="geometry" />
        </mxCell>
        <mxCell id="ZV97j1tld4-GT4euIs2s-219" value="Item 1" style="text;strokeColor=none;fillColor=none;spacingLeft=4;spacingRight=4;overflow=hidden;rotatable=0;points=[[0,0.5],[1,0.5]];portConstraint=eastwest;fontSize=12;whiteSpace=wrap;html=1;" parent="ZV97j1tld4-GT4euIs2s-218" vertex="1">
          <mxGeometry y="26" width="160" height="30" as="geometry" />
        </mxCell>
        <mxCell id="ZV97j1tld4-GT4euIs2s-220" value="Item 2" style="text;strokeColor=none;fillColor=none;spacingLeft=4;spacingRight=4;overflow=hidden;rotatable=0;points=[[0,0.5],[1,0.5]];portConstraint=eastwest;fontSize=12;whiteSpace=wrap;html=1;" parent="ZV97j1tld4-GT4euIs2s-218" vertex="1">
          <mxGeometry y="56" width="160" height="30" as="geometry" />
        </mxCell>
        <mxCell id="ZV97j1tld4-GT4euIs2s-221" value="Item 3" style="text;strokeColor=none;fillColor=none;spacingLeft=4;spacingRight=4;overflow=hidden;rotatable=0;points=[[0,0.5],[1,0.5]];portConstraint=eastwest;fontSize=12;whiteSpace=wrap;html=1;rounded=1;glass=0;sketch=1;curveFitting=1;jiggle=2;" parent="ZV97j1tld4-GT4euIs2s-218" vertex="1">
          <mxGeometry y="86" width="160" height="34" as="geometry" />
        </mxCell>
        <mxCell id="ZV97j1tld4-GT4euIs2s-222" value="List" style="swimlane;fontStyle=0;childLayout=stackLayout;horizontal=1;startSize=26;horizontalStack=0;resizeParent=1;resizeParentMax=0;resizeLast=0;collapsible=1;marginBottom=0;align=center;fontSize=14;rounded=1;" parent="1" vertex="1">
          <mxGeometry x="330" y="890" width="160" height="120" as="geometry" />
        </mxCell>
        <mxCell id="ZV97j1tld4-GT4euIs2s-223" value="Item 1" style="text;strokeColor=none;fillColor=none;spacingLeft=4;spacingRight=4;overflow=hidden;rotatable=0;points=[[0,0.5],[1,0.5]];portConstraint=eastwest;fontSize=12;whiteSpace=wrap;html=1;" parent="ZV97j1tld4-GT4euIs2s-222" vertex="1">
          <mxGeometry y="26" width="160" height="30" as="geometry" />
        </mxCell>
        <mxCell id="ZV97j1tld4-GT4euIs2s-224" value="Item 2" style="text;strokeColor=none;fillColor=none;spacingLeft=4;spacingRight=4;overflow=hidden;rotatable=0;points=[[0,0.5],[1,0.5]];portConstraint=eastwest;fontSize=12;whiteSpace=wrap;html=1;" parent="ZV97j1tld4-GT4euIs2s-222" vertex="1">
          <mxGeometry y="56" width="160" height="30" as="geometry" />
        </mxCell>
        <mxCell id="ZV97j1tld4-GT4euIs2s-225" value="Item 3" style="text;strokeColor=none;fillColor=none;spacingLeft=4;spacingRight=4;overflow=hidden;rotatable=0;points=[[0,0.5],[1,0.5]];portConstraint=eastwest;fontSize=12;whiteSpace=wrap;html=1;rounded=1;glass=0;sketch=1;curveFitting=1;jiggle=2;" parent="ZV97j1tld4-GT4euIs2s-222" vertex="1">
          <mxGeometry y="86" width="160" height="34" as="geometry" />
        </mxCell>
        <mxCell id="ZV97j1tld4-GT4euIs2s-230" value="Calendario" style="swimlane;fontStyle=0;childLayout=stackLayout;horizontal=1;startSize=26;horizontalStack=0;resizeParent=1;resizeParentMax=0;resizeLast=0;collapsible=1;marginBottom=0;align=center;fontSize=14;rounded=1;" parent="1" vertex="1">
          <mxGeometry x="-380" y="254" width="160" height="60" as="geometry" />
        </mxCell>
        <mxCell id="ZV97j1tld4-GT4euIs2s-233" value="- getEventi()" style="text;strokeColor=none;fillColor=none;spacingLeft=4;spacingRight=4;overflow=hidden;rotatable=0;points=[[0,0.5],[1,0.5]];portConstraint=eastwest;fontSize=12;whiteSpace=wrap;html=1;rounded=1;glass=0;sketch=1;curveFitting=1;jiggle=2;" parent="ZV97j1tld4-GT4euIs2s-230" vertex="1">
          <mxGeometry y="26" width="160" height="34" as="geometry" />
        </mxCell>
        <mxCell id="ZV97j1tld4-GT4euIs2s-234" value="Bonifico" style="swimlane;fontStyle=0;childLayout=stackLayout;horizontal=1;startSize=26;horizontalStack=0;resizeParent=1;resizeParentMax=0;resizeLast=0;collapsible=1;marginBottom=0;align=center;fontSize=14;rounded=1;" parent="1" vertex="1">
          <mxGeometry x="-780" y="550" width="90" height="60" as="geometry">
            <mxRectangle x="-780" y="360" width="60" height="30" as="alternateBounds" />
          </mxGeometry>
        </mxCell>
        <mxCell id="ZV97j1tld4-GT4euIs2s-237" value="Paga()" style="text;strokeColor=none;fillColor=none;spacingLeft=4;spacingRight=4;overflow=hidden;rotatable=0;points=[[0,0.5],[1,0.5]];portConstraint=eastwest;fontSize=12;whiteSpace=wrap;html=1;rounded=1;glass=0;sketch=1;curveFitting=1;jiggle=2;" parent="ZV97j1tld4-GT4euIs2s-234" vertex="1">
          <mxGeometry y="26" width="90" height="34" as="geometry" />
        </mxCell>
        <mxCell id="ZV97j1tld4-GT4euIs2s-242" value="Ubicazione" style="swimlane;fontStyle=0;childLayout=stackLayout;horizontal=1;startSize=26;horizontalStack=0;resizeParent=1;resizeParentMax=0;resizeLast=0;collapsible=1;marginBottom=0;align=center;fontSize=14;rounded=1;" parent="1" vertex="1">
          <mxGeometry x="-600" y="390" width="160" height="120" as="geometry" />
        </mxCell>
        <mxCell id="ZV97j1tld4-GT4euIs2s-243" value="+ Via: stringa&lt;div&gt;+ CittÃ : stringa&lt;/div&gt;&lt;div&gt;+ Provincia: stringa&lt;/div&gt;&lt;div&gt;+ Giorno: int&lt;/div&gt;&lt;div&gt;- Attiva (S/N): bool&lt;/div&gt;&lt;div&gt;- Fissa (S/N): bool&lt;/div&gt;&lt;div&gt;&lt;br&gt;&lt;/div&gt;" style="text;strokeColor=none;fillColor=none;spacingLeft=4;spacingRight=4;overflow=hidden;rotatable=0;points=[[0,0.5],[1,0.5]];portConstraint=eastwest;fontSize=12;whiteSpace=wrap;html=1;" parent="ZV97j1tld4-GT4euIs2s-242" vertex="1">
          <mxGeometry y="26" width="160" height="94" as="geometry" />
        </mxCell>
        <mxCell id="ZV97j1tld4-GT4euIs2s-246" value="Pagamento" style="swimlane;fontStyle=0;childLayout=stackLayout;horizontal=1;startSize=26;horizontalStack=0;resizeParent=1;resizeParentMax=0;resizeLast=0;collapsible=1;marginBottom=0;align=center;fontSize=14;rounded=1;" parent="1" vertex="1">
          <mxGeometry x="-780" y="390" width="160" height="120" as="geometry" />
        </mxCell>
        <mxCell id="ZV97j1tld4-GT4euIs2s-247" value="+ Nome: stringa&lt;div&gt;+Descrizione: stringa&lt;/div&gt;" style="text;strokeColor=none;fillColor=none;spacingLeft=4;spacingRight=4;overflow=hidden;rotatable=0;points=[[0,0.5],[1,0.5]];portConstraint=eastwest;fontSize=12;whiteSpace=wrap;html=1;" parent="ZV97j1tld4-GT4euIs2s-246" vertex="1">
          <mxGeometry y="26" width="160" height="30" as="geometry" />
        </mxCell>
        <mxCell id="ZV97j1tld4-GT4euIs2s-248" value="&amp;nbsp;" style="text;strokeColor=none;fillColor=none;spacingLeft=4;spacingRight=4;overflow=hidden;rotatable=0;points=[[0,0.5],[1,0.5]];portConstraint=eastwest;fontSize=12;whiteSpace=wrap;html=1;" parent="ZV97j1tld4-GT4euIs2s-246" vertex="1">
          <mxGeometry y="56" width="160" height="30" as="geometry" />
        </mxCell>
        <mxCell id="ZV97j1tld4-GT4euIs2s-249" value="Paga()" style="text;strokeColor=none;fillColor=none;spacingLeft=4;spacingRight=4;overflow=hidden;rotatable=0;points=[[0,0.5],[1,0.5]];portConstraint=eastwest;fontSize=12;whiteSpace=wrap;html=1;rounded=1;glass=0;sketch=1;curveFitting=1;jiggle=2;" parent="ZV97j1tld4-GT4euIs2s-246" vertex="1">
          <mxGeometry y="86" width="160" height="34" as="geometry" />
        </mxCell>
        <mxCell id="ZV97j1tld4-GT4euIs2s-280" value="" style="endArrow=none;html=1;rounded=0;exitX=0;exitY=0.5;exitDx=0;exitDy=0;entryX=1;entryY=0.5;entryDx=0;entryDy=0;" parent="ZV97j1tld4-GT4euIs2s-246" source="ZV97j1tld4-GT4euIs2s-248" target="ZV97j1tld4-GT4euIs2s-248" edge="1">
          <mxGeometry width="50" height="50" relative="1" as="geometry">
            <mxPoint x="70" y="130" as="sourcePoint" />
            <mxPoint x="120" y="80" as="targetPoint" />
          </mxGeometry>
        </mxCell>
        <mxCell id="ZV97j1tld4-GT4euIs2s-250" value="Servizio" style="swimlane;fontStyle=0;childLayout=stackLayout;horizontal=1;startSize=26;horizontalStack=0;resizeParent=1;resizeParentMax=0;resizeLast=0;collapsible=1;marginBottom=0;align=center;fontSize=14;rounded=1;" parent="1" vertex="1">
          <mxGeometry x="-425" y="390" width="160" height="70" as="geometry" />
        </mxCell>
        <mxCell id="ZV97j1tld4-GT4euIs2s-251" value="+ Nome: stringa&lt;div&gt;+ Descrizione: stringa&lt;/div&gt;" style="text;strokeColor=none;fillColor=none;spacingLeft=4;spacingRight=4;overflow=hidden;rotatable=0;points=[[0,0.5],[1,0.5]];portConstraint=eastwest;fontSize=12;whiteSpace=wrap;html=1;" parent="ZV97j1tld4-GT4euIs2s-250" vertex="1">
          <mxGeometry y="26" width="160" height="44" as="geometry" />
        </mxCell>
        <mxCell id="ZV97j1tld4-GT4euIs2s-254" value="Venditore" style="swimlane;fontStyle=0;childLayout=stackLayout;horizontal=1;startSize=26;horizontalStack=0;resizeParent=1;resizeParentMax=0;resizeLast=0;collapsible=1;marginBottom=0;align=center;fontSize=14;rounded=1;" parent="1" vertex="1">
          <mxGeometry x="-600" y="130" width="160" height="240" as="geometry" />
        </mxCell>
        <mxCell id="ZV97j1tld4-GT4euIs2s-255" value="+ Nome: stringa&lt;div&gt;+ Cognome: stringa&lt;/div&gt;&lt;div&gt;+ E-Mail: text&lt;/div&gt;&lt;div&gt;- Codice Fiscale: stringa&lt;/div&gt;&lt;div&gt;- Cellulare: int&lt;/div&gt;&lt;div&gt;- Ragione Sociale: stringa&lt;/div&gt;&lt;div&gt;- Partita IVA: stringa&lt;/div&gt;" style="text;strokeColor=none;fillColor=none;spacingLeft=4;spacingRight=4;overflow=hidden;rotatable=0;points=[[0,0.5],[1,0.5]];portConstraint=eastwest;fontSize=12;whiteSpace=wrap;html=1;" parent="ZV97j1tld4-GT4euIs2s-254" vertex="1">
          <mxGeometry y="26" width="160" height="114" as="geometry" />
        </mxCell>
        <mxCell id="ZV97j1tld4-GT4euIs2s-256" value="&amp;nbsp;" style="text;strokeColor=none;fillColor=none;spacingLeft=4;spacingRight=4;overflow=hidden;rotatable=0;points=[[0,0.5],[1,0.5]];portConstraint=eastwest;fontSize=12;whiteSpace=wrap;html=1;" parent="ZV97j1tld4-GT4euIs2s-254" vertex="1">
          <mxGeometry y="140" width="160" height="30" as="geometry" />
        </mxCell>
        <mxCell id="ZV97j1tld4-GT4euIs2s-257" value="- InserimentoServizio()&lt;div&gt;- InserimentoUbicazione()&lt;/div&gt;&lt;div&gt;- CreaEvento()&lt;/div&gt;&lt;div&gt;- PartecipaEvento()&lt;/div&gt;" style="text;strokeColor=none;fillColor=none;spacingLeft=4;spacingRight=4;overflow=hidden;rotatable=0;points=[[0,0.5],[1,0.5]];portConstraint=eastwest;fontSize=12;whiteSpace=wrap;html=1;rounded=1;glass=0;sketch=1;curveFitting=1;jiggle=2;" parent="ZV97j1tld4-GT4euIs2s-254" vertex="1">
          <mxGeometry y="170" width="160" height="70" as="geometry" />
        </mxCell>
        <mxCell id="ZV97j1tld4-GT4euIs2s-277" value="" style="endArrow=none;html=1;rounded=0;exitX=0;exitY=0.5;exitDx=0;exitDy=0;entryX=1;entryY=0.5;entryDx=0;entryDy=0;" parent="ZV97j1tld4-GT4euIs2s-254" source="ZV97j1tld4-GT4euIs2s-256" target="ZV97j1tld4-GT4euIs2s-256" edge="1">
          <mxGeometry width="50" height="50" relative="1" as="geometry">
            <mxPoint x="10" y="150" as="sourcePoint" />
            <mxPoint x="60" y="100" as="targetPoint" />
          </mxGeometry>
        </mxCell>
        <mxCell id="ZV97j1tld4-GT4euIs2s-261" value="Contanti" style="swimlane;fontStyle=0;childLayout=stackLayout;horizontal=1;startSize=26;horizontalStack=0;resizeParent=1;resizeParentMax=0;resizeLast=0;collapsible=1;marginBottom=0;align=center;fontSize=14;rounded=1;" parent="1" vertex="1">
          <mxGeometry x="-680" y="550" width="90" height="60" as="geometry">
            <mxRectangle x="-780" y="360" width="60" height="30" as="alternateBounds" />
          </mxGeometry>
        </mxCell>
        <mxCell id="ZV97j1tld4-GT4euIs2s-263" value="Paga()" style="text;strokeColor=none;fillColor=none;spacingLeft=4;spacingRight=4;overflow=hidden;rotatable=0;points=[[0,0.5],[1,0.5]];portConstraint=eastwest;fontSize=12;whiteSpace=wrap;html=1;rounded=1;glass=0;sketch=1;curveFitting=1;jiggle=2;" parent="ZV97j1tld4-GT4euIs2s-261" vertex="1">
          <mxGeometry y="26" width="90" height="34" as="geometry" />
        </mxCell>
        <mxCell id="ZV97j1tld4-GT4euIs2s-265" value="CartaCredito" style="swimlane;fontStyle=0;childLayout=stackLayout;horizontal=1;startSize=26;horizontalStack=0;resizeParent=1;resizeParentMax=0;resizeLast=0;collapsible=1;marginBottom=0;align=center;fontSize=14;rounded=1;" parent="1" vertex="1">
          <mxGeometry x="-580" y="550" width="90" height="60" as="geometry">
            <mxRectangle x="-780" y="360" width="60" height="30" as="alternateBounds" />
          </mxGeometry>
        </mxCell>
        <mxCell id="ZV97j1tld4-GT4euIs2s-267" value="Paga()" style="text;strokeColor=none;fillColor=none;spacingLeft=4;spacingRight=4;overflow=hidden;rotatable=0;points=[[0,0.5],[1,0.5]];portConstraint=eastwest;fontSize=12;whiteSpace=wrap;html=1;rounded=1;glass=0;sketch=1;curveFitting=1;jiggle=2;" parent="ZV97j1tld4-GT4euIs2s-265" vertex="1">
          <mxGeometry y="26" width="90" height="34" as="geometry" />
        </mxCell>
        <mxCell id="ZV97j1tld4-GT4euIs2s-269" value="SatisPay" style="swimlane;fontStyle=0;childLayout=stackLayout;horizontal=1;startSize=26;horizontalStack=0;resizeParent=1;resizeParentMax=0;resizeLast=0;collapsible=1;marginBottom=0;align=center;fontSize=14;rounded=1;" parent="1" vertex="1">
          <mxGeometry x="-480" y="550" width="90" height="60" as="geometry">
            <mxRectangle x="-780" y="360" width="60" height="30" as="alternateBounds" />
          </mxGeometry>
        </mxCell>
        <mxCell id="ZV97j1tld4-GT4euIs2s-271" value="Paga()" style="text;strokeColor=none;fillColor=none;spacingLeft=4;spacingRight=4;overflow=hidden;rotatable=0;points=[[0,0.5],[1,0.5]];portConstraint=eastwest;fontSize=12;whiteSpace=wrap;html=1;rounded=1;glass=0;sketch=1;curveFitting=1;jiggle=2;" parent="ZV97j1tld4-GT4euIs2s-269" vertex="1">
          <mxGeometry y="26" width="90" height="34" as="geometry" />
        </mxCell>
        <mxCell id="ZV97j1tld4-GT4euIs2s-273" value="PayPal" style="swimlane;fontStyle=0;childLayout=stackLayout;horizontal=1;startSize=26;horizontalStack=0;resizeParent=1;resizeParentMax=0;resizeLast=0;collapsible=1;marginBottom=0;align=center;fontSize=14;rounded=1;" parent="1" vertex="1">
          <mxGeometry x="-380" y="550" width="90" height="60" as="geometry">
            <mxRectangle x="-780" y="360" width="60" height="30" as="alternateBounds" />
          </mxGeometry>
        </mxCell>
        <mxCell id="ZV97j1tld4-GT4euIs2s-275" value="Paga()" style="text;strokeColor=none;fillColor=none;spacingLeft=4;spacingRight=4;overflow=hidden;rotatable=0;points=[[0,0.5],[1,0.5]];portConstraint=eastwest;fontSize=12;whiteSpace=wrap;html=1;rounded=1;glass=0;sketch=1;curveFitting=1;jiggle=2;" parent="ZV97j1tld4-GT4euIs2s-273" vertex="1">
          <mxGeometry y="26" width="90" height="34" as="geometry" />
        </mxCell>
        <mxCell id="2pnQEgeZLrab80hULNss-4" value="" style="endArrow=none;html=1;rounded=0;" edge="1" parent="1">
          <mxGeometry width="50" height="50" relative="1" as="geometry">
            <mxPoint x="-735" y="530" as="sourcePoint" />
            <mxPoint x="-335" y="530" as="targetPoint" />
          </mxGeometry>
        </mxCell>
        <mxCell id="2pnQEgeZLrab80hULNss-5" value="" style="endArrow=classic;html=1;rounded=0;entryX=0.5;entryY=0;entryDx=0;entryDy=0;" edge="1" parent="1" target="ZV97j1tld4-GT4euIs2s-234">
          <mxGeometry width="50" height="50" relative="1" as="geometry">
            <mxPoint x="-735" y="530" as="sourcePoint" />
            <mxPoint x="-230" y="360" as="targetPoint" />
          </mxGeometry>
        </mxCell>
        <mxCell id="2pnQEgeZLrab80hULNss-6" value="" style="endArrow=classic;html=1;rounded=0;entryX=0.5;entryY=0;entryDx=0;entryDy=0;" edge="1" parent="1" target="ZV97j1tld4-GT4euIs2s-261">
          <mxGeometry width="50" height="50" relative="1" as="geometry">
            <mxPoint x="-635" y="530" as="sourcePoint" />
            <mxPoint x="-580" y="480" as="targetPoint" />
          </mxGeometry>
        </mxCell>
        <mxCell id="2pnQEgeZLrab80hULNss-7" value="" style="endArrow=classic;html=1;rounded=0;entryX=0.5;entryY=0;entryDx=0;entryDy=0;" edge="1" parent="1" target="ZV97j1tld4-GT4euIs2s-265">
          <mxGeometry width="50" height="50" relative="1" as="geometry">
            <mxPoint x="-535" y="530" as="sourcePoint" />
            <mxPoint x="-580" y="480" as="targetPoint" />
          </mxGeometry>
        </mxCell>
        <mxCell id="2pnQEgeZLrab80hULNss-8" value="" style="endArrow=classic;html=1;rounded=0;entryX=0.5;entryY=0;entryDx=0;entryDy=0;" edge="1" parent="1" target="ZV97j1tld4-GT4euIs2s-273">
          <mxGeometry width="50" height="50" relative="1" as="geometry">
            <mxPoint x="-335" y="530" as="sourcePoint" />
            <mxPoint x="-330" y="460" as="targetPoint" />
          </mxGeometry>
        </mxCell>
        <mxCell id="2pnQEgeZLrab80hULNss-9" value="" style="endArrow=classic;html=1;rounded=0;entryX=0.5;entryY=0;entryDx=0;entryDy=0;" edge="1" parent="1" target="ZV97j1tld4-GT4euIs2s-269">
          <mxGeometry width="50" height="50" relative="1" as="geometry">
            <mxPoint x="-435" y="530" as="sourcePoint" />
            <mxPoint x="-330" y="460" as="targetPoint" />
          </mxGeometry>
        </mxCell>
        <mxCell id="2pnQEgeZLrab80hULNss-10" value="" style="endArrow=none;html=1;rounded=0;exitX=0.496;exitY=1.01;exitDx=0;exitDy=0;exitPerimeter=0;" edge="1" parent="1" source="ZV97j1tld4-GT4euIs2s-249">
          <mxGeometry width="50" height="50" relative="1" as="geometry">
            <mxPoint x="-590" y="480" as="sourcePoint" />
            <mxPoint x="-701" y="530" as="targetPoint" />
          </mxGeometry>
        </mxCell>
      </root>
    </mxGraphModel>
  </diagram>
</mxfile>
